# xmcd
#
# Track frame offsets: 
#        150
#        13236
#        28351
#        43909
#        65278
#        86001
#        101395
#        119494
#        134328
#        149262
#        163821
#        179945
#        201784
#        219967
#        241963
#
# Disc length: 3411 seconds
#
# Revision: 3
# Processed by: cddbd v1.5.2PL0 Copyright (c) Steve Scherf et al.
# Submitted via: ExactAudioCopy v0.99pb5
#
DISCID=e40d510f
DTITLE=Various Artist - Classic Country - TL 626-32 - 90s Greats - CD 1
DYEAR=2002
DGENRE=Country
TTITLE0=Lonestar - No news
TTITLE1=Billy Dean - Somewhere in my broken heart
TTITLE2=Martina McBride - Independence day
TTITLE3=Brad Paisley - He didn't have to be
TTITLE4=Patty Loveless - Lonely too long
TTITLE5=Tim McGraw - I like it, I love it
TTITLE6=Vince Gill - Look at us
TTITLE7=Chely Wright - Single white female
TTITLE8=Billy Ray Cyrus - Busy man
TTITLE9=Pam Tillis - Don't tell me what to do
TTITLE10=Don Williams - I've been loved by the best
TTITLE11=Wynonna - To be loved by you
TTITLE12=Vern Gosdin - That just about does it
TTITLE13=Deana Carter - Strawberry wine
TTITLE14=Diamond Rio - Norma Jean Riley
EXTD=YEAR: 2002
EXTT0=
EXTT1=
EXTT2=
EXTT3=
EXTT4=
EXTT5=
EXTT6=
EXTT7=
EXTT8=
EXTT9=
EXTT10=
EXTT11=
EXTT12=
EXTT13=
EXTT14=
PLAYORDER=
